<svg width="20" height="21" viewBox="0 0 20 21" fill="none" xmlns="http://www.w3.org/2000/svg">
<g id="users" clip-path="url(#clip0_416_206)">
<path id="Icon" d="M14.1663 18.25V16.5833C14.1663 15.6993 13.8152 14.8514 13.19 14.2263C12.5649 13.6012 11.7171 13.25 10.833 13.25H4.16634C3.28229 13.25 2.43444 13.6012 1.80932 14.2263C1.1842 14.8514 0.833008 15.6993 0.833008 16.5833V18.25M19.1663 18.25V16.5833C19.1658 15.8448 18.92 15.1273 18.4675 14.5436C18.015 13.9599 17.3814 13.543 16.6663 13.3583M13.333 3.35833C14.05 3.54192 14.6855 3.95892 15.1394 4.54359C15.5932 5.12827 15.8395 5.84736 15.8395 6.5875C15.8395 7.32764 15.5932 8.04673 15.1394 8.63141C14.6855 9.21608 14.05 9.63308 13.333 9.81667M10.833 6.58333C10.833 8.42428 9.34062 9.91667 7.49967 9.91667C5.65872 9.91667 4.16634 8.42428 4.16634 6.58333C4.16634 4.74238 5.65872 3.25 7.49967 3.25C9.34062 3.25 10.833 4.74238 10.833 6.58333Z" stroke="white" stroke-width="1.67" stroke-linecap="round" stroke-linejoin="round"/>
</g>
<defs>
<clipPath id="clip0_416_206">
<rect width="20" height="20" fill="white" transform="translate(0 0.75)"/>
</clipPath>
</defs>
</svg>
